<svg xmlns="http://www.w3.org/2000/svg" xmlns:xlink="http://www.w3.org/1999/xlink" id="Ebene_1" x="0px" y="0px" viewBox="0 0 460 126.1" style="enable-background:new 0 0 460 126.1;" xml:space="preserve"><style type="text/css">	.st0{clip-path:url(#SVGID_2_);}	.st1{fill:#FFFFFF;}	.st2{clip-path:url(#SVGID_4_);}	.st3{clip-path:url(#SVGID_6_);}	.st4{clip-path:url(#SVGID_8_);}	.st5{fill:none;stroke:#003E7D;stroke-width:2.12;stroke-miterlimit:3.86;}	.st6{fill:#003E7D;}	.st7{fill:#1F3E76;}</style><title>01Element 1</title><g id="Ebene_2_1_">	<g id="Layer_1">		<g>			<defs>				<polygon id="SVGID_1_" points="46.6,3.1 245,3.1 211.8,83.2 13.4,83.2     "></polygon>			</defs>			<clipPath id="SVGID_2_">				<use xlink:href="#SVGID_1_" style="overflow:visible;"></use>			</clipPath>			<g class="st0">				<polygon class="st1" points="122,21.9 96.4,22 73.4,39.3 88.3,3.1 69.2,3.1 43.1,67.9 61.9,67.9 66.2,57.3 75.6,51.3 80.2,67.9      102.5,67.9 94.2,39.6     "></polygon>			</g>		</g>		<g>			<defs>				<polygon id="SVGID_3_" points="46.6,3.1 245,3.1 211.8,83.2 13.4,83.2     "></polygon>			</defs>			<clipPath id="SVGID_4_">				<use xlink:href="#SVGID_3_" style="overflow:visible;"></use>			</clipPath>			<g class="st2">				<path class="st1" d="M209.3,34c3.9-11.2-7.2-14.5-24.2-14c-18.4,0.5-27.8,6.2-31.6,15.2c-1.7,4.1-0.8,7.8,1.6,10     s5.3,2.9,16.1,4.4c9.3,1.2,11.7,0.4,11.7,3.7c-0.1,2.8-5.2,4.2-8.2,3.8c-3.4-0.4-5.7-1.1-6.6-3.5h-23     c-4.4,11.1,6.1,15.4,24.8,15.3c17.8-0.1,29.1-5.7,33.5-16c2-4.7,2.5-8.8-1.6-11.5c-2.6-1.7-5.6-2.2-12.6-3.7     c-9.6-2-13.2-1.4-14.4-1.9c-1-0.4-2.1-0.9-1.2-2.8c0.9-2,3.8-2.9,8-2.9c5.2,0,6.2,1.2,6.2,3.9L209.3,34L209.3,34z"></path>			</g>		</g>		<g>			<defs>				<polygon id="SVGID_5_" points="46.6,3.1 245,3.1 211.8,83.2 13.4,83.2     "></polygon>			</defs>			<clipPath id="SVGID_6_">				<use xlink:href="#SVGID_5_" style="overflow:visible;"></use>			</clipPath>			<g class="st3">				<polygon class="st1" points="132.4,21.9 136.5,21.9 117.8,67.9 113.6,67.9     "></polygon>			</g>		</g>		<g>			<defs>				<polygon id="SVGID_7_" points="46.6,3.1 245,3.1 211.8,83.2 13.4,83.2     "></polygon>			</defs>			<clipPath id="SVGID_8_">				<use xlink:href="#SVGID_7_" style="overflow:visible;"></use>			</clipPath>			<g class="st4">				<polygon class="st1" points="93.9,41.4 159.7,41.4 158,45.5 92.2,45.5     "></polygon>			</g>		</g>		<line class="st5" x1="449.9" y1="93" x2="9.6" y2="93"></line>		<polygon class="st6" points="228.4,123.1 220.2,112.7 228.1,103 224.1,103 216.8,112.3 216.8,103 213.6,103 213.6,123.1    216.8,123.1 216.8,113.3 224.1,123.1   "></polygon>		<polygon class="st6" points="244.5,116.7 244.5,114.1 238.3,114.1 238.3,107.8 235.4,107.8 235.4,114.1 229.3,114.1 229.3,116.7    235.4,116.7 235.4,123.1 238.3,123.1 238.3,116.7   "></polygon>		<path class="st6" d="M258.5,117c0-6.3-8.8-4.8-8.8-8.8c0-1.7,1.3-2.8,3.8-2.8c1.2,0,2.4,0.2,3.6,0.6l0.2-2.9   c-1.2-0.2-2.4-0.3-3.6-0.4c-4.7,0-7.4,2.4-7.4,5.8c0,6.5,8.8,4.7,8.8,8.9c0,2.2-1.8,3.1-4,3.1c-1.4,0-2.8-0.3-4.1-0.7l-0.2,3.1   c1.3,0.3,2.7,0.5,4,0.5C255.5,123.3,258.4,120.7,258.5,117L258.5,117z"></path>		<path class="st6" d="M280.5,108.9c0-3.7-2.6-6-7.4-6c-1.9,0-3.6,0.1-5.1,0.1v20h3.2v-7.4c0.5,0,1,0.1,1.5,0.1   C277.4,115.7,280.5,112.8,280.5,108.9L280.5,108.9z M277.2,109.2c0,2.3-1.8,3.8-4.5,3.9c-0.5,0-0.9,0-1.4-0.1v-7.3   c0.6-0.1,1.1-0.1,1.7-0.1C275.8,105.6,277.2,106.9,277.2,109.2L277.2,109.2z"></path>		<path class="st6" d="M295.6,115.4c0-5.2-2.8-7.4-6.7-7.4c-4.5,0-7.4,3.4-7.4,7.9c0,5.2,2.7,7.5,6.8,7.5   C292.6,123.3,295.6,119.9,295.6,115.4z M292.3,115.6c0,3.4-1.7,5-3.8,5c-2.5,0-3.8-1.8-3.8-5.1s1.9-4.9,3.8-4.9   C291.1,110.7,292.3,112.5,292.3,115.6L292.3,115.6z"></path>		<path class="st6" d="M306.4,123v-2.6c-0.6,0.2-1.3,0.2-1.9,0.2c-1.5,0-1.9-0.6-1.9-2.8v-7.1h3.9v-2.5h-3.9v-5.6l-3.1,0.9v4.7h-2.8   v2.5h2.8v8c0,3.3,1,4.5,4.1,4.5C304.5,123.3,305.5,123.2,306.4,123L306.4,123z"></path>		<path class="st6" d="M320.4,123.1c-0.1-1.3-0.1-2.8-0.1-4v-6c0-3-1.3-5-5.8-5c-1.8,0-3.5,0.4-5.2,1l0.3,2.7   c1.3-0.8,2.8-1.2,4.4-1.2c2.3,0,3.1,0.9,3.1,2.8v1c-5.3,0-8.7,2-8.7,5.3c0,2.3,1.6,3.8,4.1,3.8c2.1,0.1,4-1.1,4.9-3.1l0,0   c-0.1,0.9-0.2,1.8-0.1,2.7L320.4,123.1L320.4,123.1z M317.2,116.7c0,2.1-1.5,4.2-3.6,4.2c-1,0.1-1.9-0.6-2-1.6c0-0.1,0-0.2,0-0.2   c0-1.3,1-2.7,5.6-2.7L317.2,116.7L317.2,116.7z"></path>		<path class="st6" d="M333.6,118.6c0-4.9-6.5-3.4-6.5-6.3c0-1.1,0.9-1.8,2.6-1.8c1,0,1.9,0.1,2.9,0.4l0.1-2.6   c-0.9-0.2-1.8-0.3-2.8-0.3c-4,0-6.1,2-6.1,4.6c0,5.1,6.5,3.3,6.5,6.3c0,1.2-1.2,2-2.9,2c-1.1,0-2.2-0.2-3.2-0.5l-0.1,2.7   c1,0.2,2.1,0.3,3.1,0.3C331.1,123.5,333.6,121.5,333.6,118.6L333.6,118.6z"></path>		<path class="st6" d="M349.3,123.1v-10.3c0-2.6-1-4.7-4.4-4.7c-2.1-0.1-4.1,1.1-5,3.1h-0.1c0.2-1,0.3-2,0.3-3v-6.7h-3.2v21.7h3.2   V116c0-3,1.6-5.3,3.9-5.3c1.7,0,2.2,1.1,2.2,2.9v9.5L349.3,123.1z"></path>		<path class="st6" d="M373.2,122.4l-0.4-2.9c-1.3,0.6-2.8,0.9-4.2,0.9c-4.4,0-6.3-2.6-6.3-7.3c0-4.2,1.9-7.4,6.1-7.4   c1.5,0,2.9,0.2,4.3,0.7l0.4-3c-1.4-0.4-2.9-0.5-4.4-0.6c-6.7,0-9.9,4.5-9.9,10.8c0,5.3,2.5,9.7,9.2,9.7   C369.7,123.3,371.5,123,373.2,122.4L373.2,122.4z"></path>		<path class="st6" d="M387.1,123.1c-0.1-1.3-0.1-2.8-0.1-4v-6c0-3-1.3-5-5.8-5c-1.8,0-3.5,0.4-5.2,1l0.3,2.7   c1.3-0.8,2.8-1.2,4.4-1.2c2.3,0,3.1,0.9,3.1,2.8v1c-5.3,0-8.7,2-8.7,5.3c0,2.3,1.6,3.8,4.1,3.8c2.1,0.1,4-1.1,4.9-3.1l0,0   c-0.1,0.9-0.2,1.8-0.2,2.7L387.1,123.1L387.1,123.1z M383.8,116.7c0,2.1-1.5,4.2-3.6,4.2c-1,0.1-1.9-0.6-2-1.6c0-0.1,0-0.2,0-0.2   c0-1.3,1-2.7,5.6-2.7L383.8,116.7L383.8,116.7z"></path>		<path class="st6" d="M403.8,123.1v-10.3c0-2.6-1-4.7-4.4-4.7c-2.2-0.1-4.2,1.2-5.1,3.2l0,0c0.1-1,0.2-1.9,0.2-2.9h-3v14.7h3.1V116   c0-2.9,1.6-5.3,3.9-5.3c1.7,0,2.2,1.1,2.2,2.9v9.5L403.8,123.1L403.8,123.1z"></path>		<path class="st6" d="M419,123.1c-0.1-1.3-0.1-2.8-0.1-4v-6c0-3-1.3-5-5.8-5c-1.8,0-3.5,0.4-5.2,1l0.3,2.7c1.3-0.8,2.8-1.2,4.4-1.2   c2.3,0,3.1,0.9,3.1,2.8v1c-5.3,0-8.7,2-8.7,5.3c0,2.3,1.6,3.8,4.1,3.8c2.1,0.1,4-1.1,4.9-3.1l0,0c-0.1,0.9-0.2,1.8-0.1,2.7   L419,123.1L419,123.1z M415.7,116.7c0,2.1-1.5,4.2-3.6,4.2c-1,0.1-1.9-0.6-2-1.6c0-0.1,0-0.2,0-0.2c0-1.3,1-2.7,5.6-2.7   L415.7,116.7L415.7,116.7z"></path>		<path class="st6" d="M435.2,123.1v-21.7h-3.1v6.8c-0.8-0.1-1.5-0.1-2.2-0.1c-4.8,0-7.7,3.3-7.7,8.3c0,4.3,1.8,6.9,5.4,6.9   c2.1,0.1,4-1.2,4.8-3.1h0.1c-0.1,0.9-0.2,1.8-0.2,2.8L435.2,123.1L435.2,123.1z M432,115.4c0,2.5-1.3,5.3-3.6,5.3   c-2,0-2.9-1.7-2.9-4.6c0-4,1.7-5.5,4.2-5.5c0.8,0,1.6,0.1,2.3,0.3L432,115.4L432,115.4z"></path>		<path class="st6" d="M450.4,123.1c-0.1-1.3-0.1-2.8-0.1-4v-6c0-3-1.3-5-5.8-5c-1.8,0-3.5,0.4-5.2,1l0.3,2.7   c1.3-0.8,2.8-1.2,4.4-1.2c2.3,0,3.1,0.9,3.1,2.8v1c-5.3,0-8.7,2-8.7,5.3c0,2.3,1.6,3.8,4.1,3.8c2.1,0.1,4-1.1,4.9-3.1l0,0   c-0.1,0.9-0.2,1.8-0.1,2.7L450.4,123.1L450.4,123.1z M447.2,116.7c0,2.1-1.5,4.2-3.6,4.2c-1,0.1-1.9-0.6-2-1.6c0-0.1,0-0.2,0-0.2   c0-1.3,1-2.7,5.6-2.7L447.2,116.7L447.2,116.7z"></path>		<polygon id="_Pfad_" class="st7" points="45,2.6 12.1,82 212.2,82 245,2.6   "></polygon>		<path id="_Pfad_2" class="st1" d="M209.2,32.4c4.4-13.5-10.7-15.8-23.3-15.8c-17.8,0-30.5,4-35.7,16.9c-0.5,1.3-0.9,2.6-1.1,4   h-15.8l7.8-19.1h-7.7l-7.8,19.1h-33l31.3-19H98.8L73.5,35.2l6.8-16.7H61.7L42.2,66.1h18.6l5-12.3l9.5-5.7l6.2,18h23l-9.1-21.8   h27.7L114,66.1h7.6l9-21.8h21.9c2,1.3,5,2,8.7,2.5l15.8,2c4.4,0.5,5.9,1.3,4.9,3.8c-1.4,3.4-6.1,4.2-10.2,4.2s-6.4-0.5-7.7-1.5   s-1.5-2.3-1-4h-21.6C136,65.7,152.9,68,166.1,68c19.7,0,32.6-5.3,37.1-16.5c3.8-9.3-1-13.2-13.2-14.7L174.6,35   c-4.5-0.5-5.2-1.8-4.6-3.3c1.3-3.2,5-4.5,10.3-4.5c2.1-0.1,4.3,0.2,6.2,1.1c1.6,0.7,2.3,2,1.7,4h20.9L209.2,32.4L209.2,32.4z"></path>	</g></g></svg>